<?xml version="1.0" encoding="iso-8859-1"?>
<!-- Generator: Adobe Illustrator 19.0.0, SVG Export Plug-In . SVG Version: 6.00 Build 0)  -->
<svg version="1.1" id="Capa_1" xmlns="http://www.w3.org/2000/svg" xmlns:xlink="http://www.w3.org/1999/xlink" x="0px" y="0px"
	 viewBox="0 0 490.667 490.667" style="enable-background:new 0 0 490.667 490.667;" xml:space="preserve">
<rect x="10.667" y="85.333" style="fill:#CFD8DC;" width="469.333" height="320"/>
<rect x="10.667" y="341.333" style="fill:#FF5722;" width="64" height="64"/>
<rect x="85.333" y="341.333" style="fill:#FF8A65;" width="149.333" height="64"/>
<rect x="245.333" y="341.333" style="fill:#FF5722;" width="160" height="64"/>
<g>
	<rect x="416" y="341.333" style="fill:#FF8A65;" width="64" height="64"/>
	<rect x="330.667" y="256" style="fill:#FF8A65;" width="149.333" height="64"/>
	<rect x="10.667" y="256" style="fill:#FF8A65;" width="149.333" height="64"/>
</g>
<rect x="10.667" y="170.667" style="fill:#FF5722;" width="64" height="64"/>
<g>
	<rect x="416" y="170.667" style="fill:#FF8A65;" width="64" height="64"/>
	<rect x="330.667" y="85.333" style="fill:#FF8A65;" width="149.333" height="64"/>
</g>
<rect x="170.667" y="85.333" style="fill:#FF5722;" width="149.333" height="64"/>
<rect x="10.667" y="85.333" style="fill:#FF8A65;" width="149.333" height="64"/>
<g>
	<rect x="170.667" y="256" style="fill:#FF5722;" width="149.333" height="64"/>
	<rect x="245.333" y="170.667" style="fill:#FF5722;" width="160" height="64"/>
</g>
<rect x="85.333" y="170.667" style="fill:#FF8A65;" width="149.333" height="64"/>
<path d="M480,426.667H10.667C4.776,426.667,0,421.891,0,416V74.667C0,68.776,4.776,64,10.667,64H480
	c5.891,0,10.667,4.776,10.667,10.667V416C490.667,421.891,485.891,426.667,480,426.667z M21.333,405.333h448v-320h-448V405.333z"/>
<path d="M245.333,426.667c-5.891,0-10.667-4.776-10.667-10.667v-85.333c0-5.891,4.776-10.667,10.667-10.667
	c5.891,0,10.667,4.776,10.667,10.667V416C256,421.891,251.224,426.667,245.333,426.667z"/>
<path d="M416,426.667c-5.891,0-10.667-4.776-10.667-10.667v-85.333c0-5.891,4.776-10.667,10.667-10.667
	c5.891,0,10.667,4.776,10.667,10.667V416C426.667,421.891,421.891,426.667,416,426.667z"/>
<path d="M74.667,426.667C68.776,426.667,64,421.891,64,416v-85.333C64,324.776,68.776,320,74.667,320s10.667,4.776,10.667,10.667
	V416C85.333,421.891,80.558,426.667,74.667,426.667z"/>
<path d="M480,341.333H10.667C4.776,341.333,0,336.558,0,330.667C0,324.776,4.776,320,10.667,320H480
	c5.891,0,10.667,4.776,10.667,10.667C490.667,336.558,485.891,341.333,480,341.333z"/>
<path d="M160,341.333c-5.891,0-10.667-4.776-10.667-10.667v-85.333c0-5.891,4.776-10.667,10.667-10.667s10.667,4.776,10.667,10.667
	v85.333C170.667,336.558,165.891,341.333,160,341.333z"/>
<path d="M330.667,341.333c-5.891,0-10.667-4.776-10.667-10.667v-85.333c0-5.891,4.776-10.667,10.667-10.667
	c5.891,0,10.667,4.776,10.667,10.667v85.333C341.333,336.558,336.558,341.333,330.667,341.333z"/>
<path d="M480,256H10.667C4.776,256,0,251.224,0,245.333c0-5.891,4.776-10.667,10.667-10.667H480c5.891,0,10.667,4.776,10.667,10.667
	C490.667,251.224,485.891,256,480,256z"/>
<path d="M245.333,256c-5.891,0-10.667-4.776-10.667-10.667V160c0-5.891,4.776-10.667,10.667-10.667
	c5.891,0,10.667,4.776,10.667,10.667v85.333C256,251.224,251.224,256,245.333,256z"/>
<path d="M416,256c-5.891,0-10.667-4.776-10.667-10.667V160c0-5.891,4.776-10.667,10.667-10.667c5.891,0,10.667,4.776,10.667,10.667
	v85.333C426.667,251.224,421.891,256,416,256z"/>
<path d="M74.667,256C68.776,256,64,251.224,64,245.333V160c0-5.891,4.776-10.667,10.667-10.667S85.333,154.109,85.333,160v85.333
	C85.333,251.224,80.558,256,74.667,256z"/>
<path d="M480,170.667H10.667C4.776,170.667,0,165.891,0,160s4.776-10.667,10.667-10.667H480c5.891,0,10.667,4.776,10.667,10.667
	S485.891,170.667,480,170.667z"/>
<path d="M160,170.667c-5.891,0-10.667-4.776-10.667-10.667V74.667C149.333,68.776,154.109,64,160,64s10.667,4.776,10.667,10.667V160
	C170.667,165.891,165.891,170.667,160,170.667z"/>
<path d="M330.667,170.667c-5.891,0-10.667-4.776-10.667-10.667V74.667C320,68.776,324.776,64,330.667,64
	c5.891,0,10.667,4.776,10.667,10.667V160C341.333,165.891,336.558,170.667,330.667,170.667z"/>
<g>
</g>
<g>
</g>
<g>
</g>
<g>
</g>
<g>
</g>
<g>
</g>
<g>
</g>
<g>
</g>
<g>
</g>
<g>
</g>
<g>
</g>
<g>
</g>
<g>
</g>
<g>
</g>
<g>
</g>
</svg>
