<?xml version="1.0" encoding="iso-8859-1"?>
<!-- Generator: Adobe Illustrator 19.0.0, SVG Export Plug-In . SVG Version: 6.00 Build 0)  -->
<svg version="1.1" id="Capa_1" xmlns="http://www.w3.org/2000/svg" xmlns:xlink="http://www.w3.org/1999/xlink" x="0px" y="0px"
	 viewBox="0 0 511.999 511.999" style="enable-background:new 0 0 511.999 511.999;" xml:space="preserve">
<path style="fill:#FAA330;" d="M428.673,368.669l29.526,29.526c10.593,10.593,27.77,10.593,38.363,0
	c10.593-10.593,10.593-27.77,0-38.363l-29.526-29.526L428.673,368.669z"/>
<ellipse style="fill:#C86D5C;" cx="171.855" cy="306.131" rx="164.355" ry="145.425"/>
<path style="fill:#B24D40;" d="M171.851,403.677c-64.226,0-116.478-43.758-116.478-97.545s52.252-97.545,116.478-97.545
	s116.478,43.758,116.478,97.545C288.33,359.917,236.077,403.677,171.851,403.677z"/>
<path style="fill:#C86D5C;" d="M171.851,355.794c-37.183,0-68.596-22.743-68.596-49.663c0-26.92,31.413-49.663,68.596-49.663
	s68.596,22.743,68.596,49.663C240.448,333.051,209.035,355.794,171.851,355.794z"/>
<path style="fill:#FFCE1C;" d="M358.883,126.085L358.883,126.085c-68.606,0-124.221,55.616-124.221,124.221v59.579
	c0,52.296-23.71,85.597-51.409,106.658c-14.841,11.285-6.698,35.015,11.947,35.015h119.694c92.9,0,168.21-75.31,168.21-168.21
	v-33.041C483.104,181.701,427.488,126.085,358.883,126.085z"/>
<path style="fill:#FAA330;" d="M213.255,416.543c27.699-21.062,51.409-54.363,51.409-106.658v-59.579
	c0-63.527,47.689-115.91,109.22-123.317c-4.918-0.592-9.922-0.904-15-0.904l0,0c-68.605,0-124.221,55.616-124.221,124.221v59.579
	c0,52.295-23.71,85.597-51.409,106.658c-14.841,11.285-6.698,35.015,11.947,35.015h30.001
	C206.556,451.558,198.412,427.828,213.255,416.543z"/>
<g>
	<circle style="fill:#FFCE1C;" cx="382.302" cy="79.543" r="19.101"/>
	<circle style="fill:#FFCE1C;" cx="458.914" cy="89.124" r="19.101"/>
</g>
<path d="M322.91,325.002c-2.929-2.929-7.678-2.929-10.606,0c-2.929,2.929-2.929,7.678,0,10.606l29.526,29.526
	c7.652,7.652,7.652,20.105,0,27.756c-7.653,7.652-20.105,7.652-27.757,0l-29.526-29.526c-2.928-2.929-7.677-2.929-10.606,0
	s-2.929,7.678,0,10.606c0,0,29.522,29.522,29.526,29.526c13.249,13.249,35.609,13.361,48.971,0c13.5-13.5,13.5-35.469,0-48.971
	L322.91,325.002z"/>
<path d="M345.799,250.011c4.142,0,7.5-3.357,7.5-7.5v-9.267c0-4.142-3.358-7.5-7.5-7.5s-7.5,3.358-7.5,7.5v9.267
	C338.299,246.653,341.657,250.011,345.799,250.011z"/>
<path d="M448.207,225.743c-4.142,0-7.5,3.358-7.5,7.5v9.267c0,4.143,3.358,7.5,7.5,7.5c4.142,0,7.5-3.357,7.5-7.5v-9.267
	C455.707,229.101,452.349,225.743,448.207,225.743z"/>
<path d="M414.576,236.218c-3.118-2.726-7.856-2.408-10.583,0.711c-1.682,1.923-4.229,3.027-6.99,3.027s-5.309-1.104-6.991-3.027
	c-2.726-3.119-7.465-3.437-10.583-0.711c-3.119,2.726-3.438,7.464-0.711,10.583c4.53,5.183,11.195,8.156,18.286,8.156
	c7.09,0,13.754-2.973,18.285-8.156C418.014,243.683,417.696,238.944,414.576,236.218z"/>
<path d="M482.743,335.396c5.113-16.455,7.87-33.936,7.87-52.05v-33.042c0-50.539-28.615-94.513-70.489-116.594
	c2.615-13.399,8.244-23.332,16.808-29.643c4.792,7.026,12.86,11.649,21.989,11.649c14.667,0,26.6-11.932,26.6-26.6
	s-11.932-26.6-26.6-26.6s-26.6,11.933-26.6,26.618c-10.192,6.071-21.203,17.346-26.173,38.219
	c-14.676-5.66-30.609-8.772-47.257-8.772c-4.83,0-9.598,0.27-14.295,0.778c2.942-11.013,8.208-19.331,15.724-24.87
	c4.792,7.026,12.859,11.649,21.989,11.649c14.667,0,26.6-11.932,26.6-26.6s-11.932-26.6-26.6-26.6s-26.6,11.932-26.6,26.618
	c-10.876,6.478-22.688,18.873-27.093,42.54c-30.52,7.206-56.975,25.054-75.21,49.4c-24.957-11.979-53.003-18.296-81.547-18.296
	c-12.711,0-25.417,1.248-37.76,3.71c-4.062,0.81-6.698,4.76-5.888,8.822c0.81,4.062,4.76,6.699,8.822,5.888
	c11.38-2.269,23.098-3.42,34.827-3.42c25.571,0,50.682,5.477,73.133,15.898c-5.565,9.55-9.856,19.709-12.841,30.257
	c-18.387-8.7-39.029-13.273-60.293-13.273c-68.361,0-123.978,47.123-123.978,105.045c0,27.27,12.296,53.12,34.625,72.788
	c3.108,2.738,7.847,2.438,10.585-0.67s2.438-7.847-0.67-10.585c-19.049-16.781-29.54-38.633-29.54-61.532
	c0-49.651,48.888-90.045,108.977-90.045c20.248,0,39.824,4.596,56.96,13.333c-0.309,1.934-0.553,3.874-0.783,5.818
	c-1.247,10.565-0.867,21.274-0.867,31.893c-14.217-11.374-34.16-18.164-55.31-18.164c-19.551,0-38.245,5.739-52.64,16.161
	c-14.906,10.792-23.457,25.737-23.457,41.001c0,15.264,8.549,30.209,23.457,41.001c14.395,10.422,33.089,16.162,52.64,16.162
	c18.495,0,36.267-5.311,49.999-14.364c-4.639,15.893-12.303,30.16-22.961,42.67c-0.024,0.028-0.048,0.056-0.072,0.083
	c-0.592,0.693-1.192,1.382-1.802,2.064c-8.206,1.611-16.661,2.427-25.165,2.427c-19.798,0-39.206-4.467-56.128-12.918
	c-3.706-1.85-8.21-0.347-10.061,3.359c-1.851,3.706-0.347,8.21,3.358,10.061c18.992,9.485,40.718,14.499,62.83,14.499
	c2.103,0,4.203-0.057,6.299-0.146c-1.462,1.17-2.805,2.468-4,3.912c-6.526,7.89-7.74,18.865-3.622,28.164
	c0.142,0.317,0.275,0.64,0.428,0.95C84.886,443.627,15,381.919,15,306.132c0-55.193,37.284-104.953,94.985-126.77
	c3.875-1.465,5.828-5.793,4.363-9.667c-1.464-3.874-5.792-5.828-9.667-4.363C41.089,189.374,0,244.642,0,306.132
	c0,84.324,77.096,152.927,171.86,152.927c5.593,0,11.269-0.259,16.898-0.749c2.069,0.491,4.229,0.749,6.45,0.749h119.694
	c52.977,0,100.552-23.567,132.795-60.766c0,0,5.205,5.205,5.206,5.206c13.348,13.347,35.633,13.339,48.971,0
	c13.5-13.5,13.5-35.469,0-48.97L482.743,335.396z M458.92,77.52c6.396,0,11.599,5.204,11.599,11.599
	c0,6.396-5.203,11.599-11.599,11.599c-6.396,0-11.599-5.203-11.599-11.599S452.524,77.52,458.92,77.52z M382.309,67.944
	c6.396,0,11.599,5.203,11.599,11.599s-5.203,11.599-11.599,11.599c-6.396,0-11.599-5.203-11.599-11.599
	C370.71,73.147,375.913,67.944,382.309,67.944z M110.764,306.132c0-22.461,28.549-42.162,61.096-42.162
	c23.16,0,45.058,9.892,55.31,24.798v21.118c0,4.869-0.227,9.74-0.688,14.587c-10.625,14.524-31.818,23.822-54.622,23.822
	C139.314,348.294,110.764,328.592,110.764,306.132z M314.903,444.058H195.209c-6.09,0-11.194-4.58-11.997-10.601
	c-0.002-0.015-0.004-0.031-0.005-0.045c-0.523-4.187,1.235-8.343,4.595-10.898c15.784-12.001,28.163-26.005,37.096-41.923
	c12.04-21.456,17.274-46.232,17.274-70.705v-59.579c0-10.813,1.508-21.653,4.476-32.052c13.962-48.826,58.997-84.669,112.245-84.669
	c64.36,0,116.721,52.361,116.721,116.721v33.042C475.613,371.963,403.519,444.058,314.903,444.058z M491.267,392.891
	c-7.566,7.566-20.196,7.561-27.757,0l-6.366-6.366c8.045-11.066,14.731-22.965,19.976-35.538l14.147,14.147
	C498.92,372.788,498.92,385.239,491.267,392.891z"/>
<g>
</g>
<g>
</g>
<g>
</g>
<g>
</g>
<g>
</g>
<g>
</g>
<g>
</g>
<g>
</g>
<g>
</g>
<g>
</g>
<g>
</g>
<g>
</g>
<g>
</g>
<g>
</g>
<g>
</g>
</svg>
